<?xml version="1.0" encoding="UTF-8"?>
<svg id="Capa_2" data-name="Capa 2" xmlns="http://www.w3.org/2000/svg" viewBox="0 0 22.29 22.29">
  <defs>
    <style>
      .cls-1 {
        fill: #c2c6dd;
        fill-rule: evenodd;
        stroke-width: 0px;
      }
    </style>
  </defs>
  <g id="Capa_1-2" data-name="Capa 1">
    <g id="Page-1">
      <g id="Dribbble-Light-Preview">
        <g id="icons">
          <path id="github-_142_" data-name="github-[#142]" class="cls-1" d="m11.14,0c6.15,0,11.14,5.11,11.14,11.42,0,5.05-3.19,9.33-7.61,10.84-.56.11-.77-.24-.77-.55,0-.38.01-1.61.01-3.14,0-1.06-.36-1.76-.76-2.11,2.48-.28,5.09-1.25,5.09-5.64,0-1.25-.43-2.27-1.15-3.07.12-.29.5-1.45-.11-3.02,0,0-.93-.31-3.06,1.17-.89-.25-1.84-.38-2.79-.38-.95,0-1.9.13-2.79.38-2.13-1.48-3.07-1.17-3.07-1.17-.61,1.57-.22,2.74-.11,3.02-.71.8-1.15,1.82-1.15,3.07,0,4.38,2.6,5.36,5.08,5.65-.32.29-.61.79-.71,1.53-.64.29-2.25.8-3.24-.95,0,0-.59-1.1-1.71-1.18,0,0-1.09-.01-.08.69,0,0,.73.35,1.24,1.67,0,0,.65,2.04,3.75,1.35,0,.95.02,1.86.02,2.13,0,.3-.21.66-.76.55C3.19,20.76,0,16.47,0,11.42,0,5.11,4.99,0,11.14,0"/>
        </g>
      </g>
    </g>
  </g>
</svg>