<?xml version="1.0" encoding="UTF-8"?>
<svg id="Capa_2" data-name="Capa 2" xmlns="http://www.w3.org/2000/svg" viewBox="0 0 20.97 20.97">
  <defs>
    <style>
      .cls-1 {
        fill: #c2c6dd;
        fill-rule: evenodd;
        stroke-width: 0px;
      }
    </style>
  </defs>
  <g id="Capa_1-2" data-name="Capa 1">
    <g id="Page-1">
      <g id="Dribbble-Light-Preview">
        <g id="icons">
          <path id="linkedin-_161_" data-name="linkedin-[#161]" class="cls-1" d="m20.97,20.97h-4.19v-7.34c0-2.01-.89-3.14-2.48-3.14-1.73,0-2.76,1.17-2.76,3.14v7.34h-4.19V7.34h4.19v1.53s1.32-2.31,4.28-2.31,5.15,1.81,5.15,5.55v8.85h0ZM2.56,5.16c-1.41,0-2.56-1.16-2.56-2.58S1.15,0,2.56,0s2.56,1.16,2.56,2.58c0,1.42-1.15,2.58-2.56,2.58h0ZM0,20.97h5.24V7.34H0v13.63Z"/>
        </g>
      </g>
    </g>
  </g>
</svg>