<svg xmlns:xlink="http://www.w3.org/1999/xlink" xmlns="http://www.w3.org/2000/svg" class="dHctdy0xMA dHctaC0xMA dHctdGV4dC1kYXJrLTMwMA" width="24" height="24" viewBox="0 0 24 24" stroke="currentColor" stroke-width="1.5" fill="none" stroke-linecap="round" stroke-linejoin="round"><path stroke="none" d="M0 0h24v24H0z" fill="none" stroke-width="1.5px"></path><path d="M4 13a8 8 0 0 1 7 7a6 6 0 0 0 3 -5a9 9 0 0 0 6 -8a3 3 0 0 0 -3 -3a9 9 0 0 0 -8 6a6 6 0 0 0 -5 3" stroke="#C2C6DD" fill="none" stroke-width="1.5px"></path><path d="M7 14a6 6 0 0 0 -3 6a6 6 0 0 0 6 -3" stroke="#C2C6DD" fill="none" stroke-width="1.5px"></path><circle cx="15" cy="9" r="1" stroke="#C2C6DD" fill="none" stroke-width="1.5px"></circle></svg>