<?xml version="1.0" encoding="UTF-8"?>
<svg id="Capa_2" data-name="Capa 2" xmlns="http://www.w3.org/2000/svg" viewBox="0 0 20.14 20.14">
  <defs>
    <style>
      .cls-1 {
        fill: #c2c6dd;
        stroke-width: 0px;
      }
    </style>
  </defs>
  <g id="Capa_1-2" data-name="Capa 1">
    <path class="cls-1" d="m10.07,0C4.52,0,0,4.52,0,10.07s4.52,10.07,10.07,10.07,10.07-4.52,10.07-10.07c0-5.55-4.52-10.07-10.07-10.07ZM1.02,10.07c0-1.31.28-2.56.78-3.68l4.32,11.83c-3.02-1.47-5.1-4.56-5.1-8.15Zm9.05,9.05c-.89,0-1.75-.13-2.56-.37l2.72-7.89,2.78,7.62s.04.09.06.12c-.94.33-1.95.51-3.01.51Zm1.25-13.3c.54-.03,1.04-.09,1.04-.09.49-.06.43-.77-.06-.75,0,0-1.47.11-2.41.11-.89,0-2.38-.11-2.38-.11-.49-.03-.54.72-.06.75,0,0,.46.06.95.09l1.41,3.86-1.98,5.94-3.3-9.81c.55-.03,1.04-.09,1.04-.09.49-.06.43-.77-.06-.75,0,0-1.47.11-2.41.11-.17,0-.37,0-.58-.01C4.12,2.64,6.91,1.02,10.07,1.02c2.36,0,4.5.9,6.11,2.38-.04,0-.08,0-.12,0-.89,0-1.52.77-1.52,1.61,0,.75.43,1.38.89,2.12.34.6.75,1.38.75,2.5,0,.78-.3,1.67-.69,2.93l-.9,3.02-3.27-9.73Zm3.3,12.07l2.77-7.99c.52-1.29.69-2.32.69-3.24,0-.33-.02-.64-.06-.93.71,1.29,1.11,2.77,1.11,4.34,0,3.34-1.81,6.26-4.5,7.82Z"/>
  </g>
</svg>